<svg xmlns="http://www.w3.org/2000/svg" width="128" height="128" viewBox="45 6 205 188" role="img" aria-labelledby="title">
  <title id="title">织册</title>
  <path d="M78 143V62c0-19 13-30 32-30h96v111H82" fill="#fffdf5" stroke="#000" stroke-width="6.5" stroke-linecap="round" stroke-linejoin="round"/>
  <path d="M82 143h139v45H82c-17 0-28-9-28-23s11-22 28-22Z" fill="#fffdf5" stroke="#000" stroke-width="6.5" stroke-linecap="round" stroke-linejoin="round"/>
  <path d="M91 155h117M91 167h117M91 179h117" fill="none" stroke="#000" stroke-width="4.5" stroke-linecap="square"/>
  <rect x="98" y="34" width="106" height="109" fill="#fffdf5" stroke="#000" stroke-width="5.5"/>
  <rect x="101" y="66" width="36" height="17" fill="#ff6b6b"/>
  <rect x="138" y="90" width="23" height="17" fill="#ff6b6b"/>
  <rect x="163" y="84" width="18" height="59" fill="#ffd93d"/>
  <rect x="164" y="15" width="21" height="63" fill="#ffd93d" stroke="#000" stroke-width="5"/>
  <rect x="185" y="61" width="56" height="18" fill="#ff6b6b" stroke="#000" stroke-width="5"/>
  <rect x="184" y="91" width="39" height="17" fill="#ffd93d" stroke="#000" stroke-width="5"/>
  <path d="M126 34v109M156 34v109M185 34v109" fill="none" stroke="#000" stroke-width="5.5" stroke-linecap="square"/>
  <path d="M98 61h121M98 87h106M98 113h106" fill="none" stroke="#000" stroke-width="5.5" stroke-linecap="square"/>
</svg>
