<svg xmlns="http://www.w3.org/2000/svg" width="128" height="128" viewBox="24 0 200 190" role="img" aria-labelledby="title">
  <title id="title">织册</title>
  <g fill="none" stroke="#000" stroke-linejoin="round">
    <path d="M42 137V49c0-24 16-38 40-38h91v126H64c-14 0-22 8-22 22" fill="#fffdf5" stroke-width="7" stroke-linecap="round"/>
    <path d="M42 158c0-13 10-22 25-22h120v42H67c-15 0-25-8-25-20Z" fill="#fffdf5" stroke-width="7" stroke-linecap="round"/>
    <path d="M66 149h104M66 160h104M66 171h104" stroke-width="4.5" stroke-linecap="square"/>
    <path d="M72 30h103v106H72z" fill="#fffdf5" stroke-width="5.5" stroke-linecap="square"/>
    <path d="M100 30v106M129 30v106M157 30v106" stroke-width="5.5" stroke-linecap="square"/>
    <path d="M72 56h124M72 82h111M72 108h111" stroke-width="5.5" stroke-linecap="square"/>
    <path d="M145 0h20v58h-20z" fill="#ffd93d" stroke-width="4.5" stroke-linecap="square"/>
    <path d="M164 49h54v17h-54z" fill="#ff6b6b" stroke-width="4.5" stroke-linecap="square"/>
    <path d="M164 78h36v17h-36z" fill="#ffd93d" stroke-width="4.5" stroke-linecap="square"/>
    <path d="M101 64h31v16h-31zM131 82h16v16h-16z" fill="#ff6b6b" stroke-width="4.5" stroke-linecap="square"/>
    <path d="M132 57h15v79h-15zM155 79h17v17h-17z" fill="#ffd93d" stroke-width="4.5" stroke-linecap="square"/>
  </g>
</svg>
