<svg xmlns="http://www.w3.org/2000/svg" width="760" height="220" viewBox="0 0 760 220" role="img" aria-labelledby="title desc">
  <title id="title">织册 Zhice</title>
  <desc id="desc">A transparent logo mark showing woven textbook pages beside the Zhice wordmark.</desc>
  <g transform="translate(-18 -5) scale(1.14)">
    <path d="M78 143V62c0-19 13-30 32-30h96v111H82" fill="#fffdf5" stroke="#000" stroke-width="6.5" stroke-linecap="round" stroke-linejoin="round"/>
    <path d="M82 143h139v45H82c-17 0-28-9-28-23s11-22 28-22Z" fill="#fffdf5" stroke="#000" stroke-width="6.5" stroke-linecap="round" stroke-linejoin="round"/>
    <path d="M91 155h117M91 167h117M91 179h117" fill="none" stroke="#000" stroke-width="4.5" stroke-linecap="square"/>

    <rect x="98" y="34" width="106" height="109" fill="#fffdf5" stroke="#000" stroke-width="5.5"/>
    <rect x="101" y="66" width="36" height="17" fill="#ff6b6b"/>
    <rect x="138" y="90" width="23" height="17" fill="#ff6b6b"/>
    <rect x="163" y="84" width="18" height="59" fill="#ffd93d"/>
    <rect x="164" y="15" width="21" height="63" fill="#ffd93d" stroke="#000" stroke-width="5"/>
    <rect x="185" y="61" width="56" height="18" fill="#ff6b6b" stroke="#000" stroke-width="5"/>
    <rect x="184" y="91" width="39" height="17" fill="#ffd93d" stroke="#000" stroke-width="5"/>

    <path d="M126 34v109M156 34v109M185 34v109" fill="none" stroke="#000" stroke-width="5.5" stroke-linecap="square"/>
    <path d="M98 61h121M98 87h106M98 113h106" fill="none" stroke="#000" stroke-width="5.5" stroke-linecap="square"/>
  </g>

  <g transform="translate(294 26)" fill="none" stroke="#000" stroke-linejoin="round">
    <text x="0" y="98" fill="#000" stroke="none" font-family="Arial Black, Microsoft YaHei, PingFang SC, sans-serif" font-size="102" font-weight="900">织册</text>
    <path d="M8 152h34" stroke="#ff6b6b" stroke-width="7" stroke-linecap="square"/>
    <text x="62" y="166" fill="#000" stroke="none" font-family="Arial Black, Space Grotesk, sans-serif" font-size="36" font-weight="900" letter-spacing="14">ZHICE</text>
    <path d="M344 152h34" stroke="#ffd93d" stroke-width="7" stroke-linecap="square"/>
  </g>
</svg>
