<svg xmlns="http://www.w3.org/2000/svg" width="760" height="220" viewBox="0 0 760 220" role="img" aria-labelledby="title desc">
  <title id="title">织册 Zhice</title>
  <desc id="desc">A transparent logo mark showing woven textbook pages beside the Zhice wordmark.</desc>
  <g fill="none" stroke="#000" stroke-linejoin="round">
    <g transform="translate(46 18)">
      <path d="M42 137V49c0-24 16-38 40-38h91v126H64c-14 0-22 8-22 22" fill="#fffdf5" stroke-width="7" stroke-linecap="round"/>
      <path d="M42 158c0-13 10-22 25-22h120v42H67c-15 0-25-8-25-20Z" fill="#fffdf5" stroke-width="7" stroke-linecap="round"/>
      <path d="M66 149h104M66 160h104M66 171h104" stroke-width="4.5" stroke-linecap="square"/>

      <path d="M72 30h103v106H72z" fill="#fffdf5" stroke-width="5.5" stroke-linecap="square"/>
      <path d="M100 30v106M129 30v106M157 30v106" stroke-width="5.5" stroke-linecap="square"/>
      <path d="M72 56h124M72 82h111M72 108h111" stroke-width="5.5" stroke-linecap="square"/>

      <path d="M145 0h20v58h-20z" fill="#ffd93d" stroke-width="4.5" stroke-linecap="square"/>
      <path d="M164 49h54v17h-54z" fill="#ff6b6b" stroke-width="4.5" stroke-linecap="square"/>
      <path d="M164 78h36v17h-36z" fill="#ffd93d" stroke-width="4.5" stroke-linecap="square"/>
      <path d="M101 64h31v16h-31zM131 82h16v16h-16z" fill="#ff6b6b" stroke-width="4.5" stroke-linecap="square"/>
      <path d="M132 57h15v79h-15zM155 79h17v17h-17z" fill="#ffd93d" stroke-width="4.5" stroke-linecap="square"/>
    </g>

    <g transform="translate(294 26)">
      <text x="0" y="98" fill="#000" stroke="none" font-family="Arial Black, Microsoft YaHei, PingFang SC, sans-serif" font-size="102" font-weight="900">织册</text>
      <path d="M8 152h34" stroke="#ff6b6b" stroke-width="7" stroke-linecap="square"/>
      <text x="62" y="166" fill="#000" stroke="none" font-family="Arial Black, Space Grotesk, sans-serif" font-size="36" font-weight="900" letter-spacing="14">ZHICE</text>
      <path d="M344 152h34" stroke="#ffd93d" stroke-width="7" stroke-linecap="square"/>
    </g>
  </g>
</svg>
